<svg width="109" height="97" viewBox="0 0 109 97" fill="none" xmlns="http://www.w3.org/2000/svg">
<g id="Group 17">
<path id="Vector" d="M20.3667 9.37384C21.4196 9.48057 22.0166 9.95517 22.4499 10.5837L22.5891 10.6131C28.2552 13.0888 31.3304 18.2521 31.9686 23.8717C32.4295 27.9304 31.5897 32.0911 29.6068 35.7488C27.6845 39.9415 22.8662 41.3452 18.5771 41.8306L17.4602 41.9569C17.1475 41.9923 16.7901 42.0328 16.4276 42.0287L15.8914 42.0893C9.45786 42.8175 3.59327 38.1958 1.61384 32.3213C0.790824 30.6528 0.28561 28.9933 0.0931344 27.2985C-0.904674 18.5121 6.24678 10.1588 15.227 9.14242C16.8801 8.9554 18.6082 9.03081 20.3667 9.37384ZM20.7235 15.703C20.1072 15.4565 19.6646 15.1452 19.2962 14.6901C18.2331 14.4942 17.1903 14.4766 16.1628 14.5929C14.2863 14.8053 12.5051 15.4586 10.8244 16.5974C6.90743 19.1639 5.31733 23.0933 5.76811 27.0628C5.99604 29.0698 6.66061 30.937 7.81158 32.7041C9.80578 36.3182 13.5514 37.0236 17.3489 36.5939C19.1807 36.3865 20.9821 35.9116 22.55 35.3728C25.7471 32.8426 27.1432 28.7997 26.6925 24.8302C26.267 21.0838 24.2332 17.5193 20.7235 15.703ZM43.039 38.5652C43.3461 40.473 42.0725 41.6109 40.6876 41.7676C39.3919 41.9142 37.9503 41.1739 37.698 39.3504L33.2744 10.759C32.6412 9.56585 32.9107 7.95423 34.2299 7.2177C34.2695 7.16802 34.3142 7.16303 34.3588 7.15795C34.3984 7.10827 34.3984 7.10827 34.4431 7.10319C34.9092 6.82459 35.3956 6.72435 35.9865 6.74789C44.0815 5.10894 52.3216 3.95052 60.721 2.99994C62.5975 2.78757 63.7374 4.05896 63.8893 5.39698C64.0362 6.69043 63.2896 8.0849 61.5075 8.33178C58.9955 8.52579 56.4834 8.7197 53.9814 9.00288C48.8882 9.57922 43.9147 10.4132 38.8628 11.7528L43.039 38.5652ZM66.5349 22.8961C64.5548 23.3912 63.231 22.0954 63.0639 20.6237C62.9272 19.4194 63.5499 18.1293 65.2223 17.7141C68.7408 16.819 72.2889 15.785 75.8824 15.1525C75.1377 12.978 74.0061 10.983 72.4479 9.21684C70.5163 6.95087 67.5464 6.69971 65.0805 5.30734C63.9027 4.89855 63.3495 4.01249 63.2483 3.12048C63.0913 1.73786 64.0461 0.184236 65.5652 0.012321C65.9672 -0.0331838 66.4293 0.0500553 66.9461 0.217441C67.6517 0.453803 68.2333 0.794531 68.8151 1.13526C75.0003 2.60361 79.5214 8.14525 81.4224 14.5255C81.8296 14.5246 82.2368 14.5237 82.7333 14.5126C84.4513 14.499 85.3922 15.6121 85.5341 16.861C85.6962 18.2882 84.791 19.8813 82.8049 19.9254C82.6263 19.9457 82.4922 19.9608 82.3978 19.9263C82.581 21.9384 82.4811 23.847 82.1871 25.642C82.204 30.9707 79.3039 35.3193 75.5928 38.9016C75.0332 39.5521 74.433 39.8459 73.8075 39.9167C72.3331 40.0836 70.9352 38.9317 70.7732 37.5045C70.6972 36.8355 70.8843 36.0915 71.4835 35.3913C72.3946 34.2492 73.4154 33.2753 74.3711 32.1282C76.4687 28.6834 77.3085 24.5228 76.9766 20.4043C73.4278 21.0318 70.0635 22.0901 66.5349 22.8961ZM97.6491 26.7833C97.8339 27.2142 97.9289 27.6551 97.9748 28.0565C98.1267 29.3945 97.5781 30.5407 96.6866 31.4548C95.5617 34.6991 94.2926 37.8694 93.2225 41.1979C92.8475 42.2793 91.9651 42.8761 91.0268 42.9822C89.6865 43.134 88.1901 42.3094 88.0026 40.6592L87.9723 40.3916C87.8709 39.4997 88.1078 38.7952 88.5435 38.249C88.6817 37.872 88.8249 37.5395 88.9184 37.1676C89.4316 35.7091 89.9102 34.3449 90.4233 32.8864C90.2741 32.7678 90.2792 32.8124 90.1299 32.6938L88.9403 31.3828C88.6064 30.8334 88.4014 30.2241 88.3356 29.6443C88.2293 28.7077 88.4803 27.7307 88.9252 26.8671C89.5766 25.0317 91.104 24.1361 92.7722 24.0827C93.3084 24.0221 93.8099 24.0557 94.282 24.2281C95.211 24.4392 96.0313 24.8885 96.7429 25.5758C97.1455 25.9368 97.4592 26.3079 97.6491 26.7833Z" fill="#C3BBC6"/>
<path id="Vector_2" d="M24.5239 66.7969C23.9915 66.9162 23.5219 66.9563 23.1243 66.8726C21.578 66.5474 20.7701 64.8976 21.0573 63.5244C21.2427 62.6385 21.9233 61.8105 23.139 61.5112C23.9293 61.2612 24.7545 61.0648 25.5797 60.8684C25.6767 59.9638 25.862 59.0779 26.0473 58.1921C26.659 55.2684 27.6241 52.4193 28.7915 49.7051C28.4609 49.0806 28.3348 48.3604 28.4831 47.6517C28.7333 46.4557 29.6904 45.4084 31.1947 45.4935C31.8453 45.0291 32.6078 44.912 33.3146 45.0607C34.0216 45.2094 34.6728 45.6238 35.0918 46.2669L50.0246 49.4074C51.836 49.7883 52.4859 51.3124 52.1986 52.6856C51.9298 53.9702 50.724 55.1039 48.9127 54.7229L33.8914 51.5638C32.7981 53.9236 31.9071 56.4185 31.3696 58.9876C31.277 59.4306 31.2377 59.8386 31.145 60.2816C35.2183 60.2133 39.1966 60.8188 43.1565 61.5128C45.2002 61.6651 46.0082 63.3149 45.7023 64.7767C45.4521 65.9727 44.4509 67.0108 42.7698 66.8885C38.773 66.3716 34.7083 65.5168 30.6074 65.7179C30.6085 70.3426 31.7974 74.801 35.0387 78.4887C35.648 78.663 36.3014 78.8466 36.92 78.9768C41.7797 79.9989 46.8242 79.2562 51.5381 77.889C52.0705 77.7697 52.54 77.7298 52.9818 77.8227C54.484 78.1387 55.3104 79.6998 55.0232 81.073C54.8378 81.9589 54.1665 82.7426 52.9416 83.0862C47.3561 84.8712 41.3745 85.4631 35.6753 84.2645C34.3941 83.9949 33.0872 83.6276 31.843 83.181C27.255 78.6552 25.3628 72.7078 25.2165 66.5726C24.9678 66.6591 24.7726 66.7105 24.5239 66.7969ZM61.5775 85.9198C61.2674 87.8432 59.6939 88.5296 58.3243 88.2416C57.0431 87.9721 55.903 86.8075 56.2388 84.982L61.0582 56.2137C60.8316 54.8712 61.5978 53.4137 63.0879 53.1259C63.1414 53.0909 63.1855 53.1002 63.2297 53.1094C63.2831 53.0744 63.2831 53.0744 63.3274 53.0838C63.8596 52.9645 64.3549 53.0224 64.9107 53.2317C73.144 54.2233 81.3636 55.7208 89.6695 57.4676C91.525 57.8578 92.2096 59.4355 91.9317 60.7643C91.6629 62.0489 90.5106 63.1478 88.7341 62.8204C86.2785 62.2115 83.823 61.6026 81.3489 61.0822C76.3124 60.023 71.3086 59.2481 66.0704 58.9326L61.5775 85.9198ZM88.923 78.3523C86.8793 78.1999 86.0273 76.5409 86.333 75.0791C86.5833 73.8831 87.5845 72.845 89.3097 72.9767C92.946 73.2327 96.6544 73.3652 100.279 73.8963C100.257 71.5792 99.8087 69.3115 98.8818 67.128C97.7567 64.348 95.0055 63.1682 93.0952 61.0553C92.1019 60.2915 91.8547 59.2683 92.0401 58.3824C92.3274 57.0093 93.7284 55.824 95.2305 56.14C95.6282 56.2235 96.0422 56.4493 96.4818 56.7731C97.0796 57.2225 97.5264 57.7327 97.9732 58.2428C103.404 61.6049 105.962 68.3396 105.758 75.0485C106.146 75.1764 106.534 75.3043 107.011 75.4508C108.653 75.9811 109.198 77.3443 108.938 78.5846C108.642 80.0021 107.276 81.2409 105.369 80.6548C105.192 80.6177 105.06 80.5899 104.98 80.5269C104.519 82.511 103.821 84.3063 102.973 85.9317C101.306 91.0379 97.1673 94.2834 92.4981 96.5386C91.7591 96.9843 91.0943 97.0758 90.4758 96.9457C89.0178 96.639 88.0496 95.0944 88.3461 93.6768C88.4852 93.0124 88.8985 92.3594 89.6909 91.8787C90.9202 91.0735 92.2008 90.4641 93.4742 89.6684C96.5621 87.0343 98.6774 83.3171 99.6625 79.2698C96.0818 78.748 92.5409 78.697 88.923 78.3523Z" fill="#C3BBC6"/>
</g>
</svg>
