<svg width="210" height="155" viewBox="0 0 210 155" fill="none" xmlns="http://www.w3.org/2000/svg">
<g id="Group 17">
<path id="Vector" d="M31.9148 14.6889C33.5648 14.8561 34.5002 15.5998 35.1793 16.5847L35.3974 16.6308C44.2761 20.5103 49.095 28.6012 50.0951 37.4072C50.8174 43.7672 49.5013 50.2871 46.3941 56.0187C43.3819 62.5888 35.8315 64.7883 29.1106 65.5489L27.3604 65.747C26.8703 65.8024 26.3102 65.8659 25.7422 65.8593L24.902 65.9544C14.8206 67.0954 5.63069 59.8532 2.52891 50.6479C1.23923 48.0332 0.447553 45.4327 0.145943 42.777C-1.41763 29.0087 9.78877 15.9189 23.8609 14.3263C26.4513 14.0332 29.1593 14.1514 31.9148 14.6889ZM32.4739 24.6068C31.5082 24.2206 30.8146 23.7327 30.2373 23.0195C28.5715 22.7125 26.9374 22.685 25.3272 22.8673C22.3867 23.2 19.5956 24.2238 16.9619 26.0084C10.824 30.0301 8.33231 36.1874 9.03869 42.4076C9.39586 45.5526 10.4372 48.4787 12.2408 51.2476C15.3658 56.911 21.2351 58.0164 27.1859 57.343C30.0564 57.0181 32.8792 56.2739 35.3361 55.4296C40.3459 51.4647 42.5337 45.1294 41.8274 38.9092C41.1606 33.0385 37.9737 27.4529 32.4739 24.6068ZM67.4425 60.4321C67.9238 63.4216 65.9281 65.2047 63.7578 65.4503C61.7275 65.6801 59.4685 64.52 59.0731 61.6625L52.1414 16.8595C51.1491 14.9898 51.5714 12.4644 53.6385 11.3102C53.7007 11.2324 53.7707 11.2246 53.8407 11.2166C53.9027 11.1387 53.9027 11.1387 53.9727 11.1308C54.7031 10.6942 55.4653 10.5371 56.3913 10.574C69.0762 8.00576 81.9885 6.19051 95.1504 4.70093C98.0909 4.36816 99.8772 6.36042 100.115 8.45712C100.345 10.484 99.1755 12.6691 96.3829 13.056C92.4465 13.36 88.51 13.6639 84.5894 14.1076C76.6083 15.0107 68.8147 16.3176 60.8985 18.4168L67.4425 60.4321ZM104.261 35.8784C101.158 36.6543 99.0837 34.6238 98.8218 32.3175C98.6076 30.4304 99.5833 28.4088 102.204 27.7582C107.718 26.3555 113.277 24.7353 118.908 23.7441C117.742 20.3367 115.968 17.2104 113.527 14.4429C110.5 10.8921 105.846 10.4985 101.982 8.31666C100.136 7.67608 99.2694 6.28762 99.1108 4.88983C98.8647 2.72325 100.361 0.288699 102.741 0.0193072C103.371 -0.0519993 104.095 0.0784372 104.905 0.340733C106.011 0.711114 106.922 1.24504 107.834 1.77896C117.526 4.07988 124.611 12.7637 127.59 22.7616C128.228 22.7602 128.866 22.7588 129.644 22.7414C132.336 22.72 133.811 24.4644 134.033 26.4213C134.287 28.6577 132.868 31.1543 129.756 31.2233C129.476 31.2551 129.266 31.2788 129.118 31.2247C129.405 34.3777 129.249 37.3685 128.788 40.1814C128.815 48.5313 124.27 55.3458 118.455 60.9592C117.578 61.9786 116.637 62.4389 115.657 62.5499C113.347 62.8114 111.156 61.0064 110.902 58.77C110.783 57.7216 111.076 56.5557 112.015 55.4585C113.443 53.6688 115.043 52.1428 116.54 50.3453C119.827 44.9473 121.143 38.4275 120.623 31.9738C115.062 32.9571 109.79 34.6155 104.261 35.8784ZM153.017 41.9696C153.307 42.6449 153.456 43.3358 153.528 43.9649C153.766 46.0616 152.906 47.8577 151.509 49.29C149.746 54.3739 147.757 59.3417 146.081 64.5575C145.493 66.2521 144.11 67.1873 142.64 67.3536C140.54 67.5914 138.195 66.2993 137.901 63.7134L137.853 63.2941C137.695 61.8964 138.066 60.7925 138.749 59.9366C138.965 59.3458 139.19 58.8248 139.336 58.242C140.14 55.9565 140.89 53.8188 141.694 51.5333C141.46 51.3475 141.468 51.4174 141.235 51.2315L139.37 49.1772C138.847 48.3163 138.526 47.3616 138.423 46.4529C138.256 44.9852 138.649 43.4542 139.347 42.1011C140.367 39.2249 142.761 37.8215 145.375 37.7378C146.215 37.6428 147.001 37.6955 147.741 37.9657C149.197 38.2965 150.482 39.0005 151.597 40.0776C152.228 40.6432 152.72 41.2247 153.017 41.9696Z" fill="#C3BBC6"/>
<path id="Vector_2" d="M77.5219 107.156C76.6878 107.343 75.9519 107.406 75.3288 107.275C72.9058 106.765 71.6397 104.18 72.0899 102.028C72.3803 100.64 73.4468 99.3422 75.3518 98.8733C76.5902 98.4815 77.8833 98.1737 79.1764 97.866C79.3284 96.4485 79.6188 95.0603 79.9092 93.6721C80.8677 89.0908 82.38 84.6261 84.2093 80.3729C83.6913 79.3944 83.4938 78.2658 83.7261 77.1552C84.1181 75.2811 85.6179 73.6399 87.9752 73.7733C88.9948 73.0457 90.1896 72.8621 91.2972 73.0951C92.4049 73.3281 93.4254 73.9775 94.082 74.9852L117.482 79.9064C120.32 80.5034 121.339 82.8915 120.888 85.0434C120.467 87.0564 118.578 88.8329 115.739 88.2359L92.2009 83.2856C90.4878 86.9834 89.0916 90.8928 88.2493 94.9188C88.1041 95.6129 88.0426 96.2523 87.8974 96.9464C94.2802 96.8394 100.514 97.7882 106.719 98.8757C109.922 99.1144 111.188 101.7 110.709 103.99C110.317 105.864 108.748 107.491 106.113 107.299C99.8504 106.49 93.4811 105.15 87.0548 105.465C87.0566 112.712 88.9196 119.698 93.9987 125.477C94.9535 125.75 95.9775 126.038 96.9467 126.242C104.562 127.844 112.467 126.68 119.854 124.537C120.688 124.351 121.424 124.288 122.116 124.434C124.47 124.929 125.765 127.375 125.315 129.527C125.024 130.915 123.972 132.143 122.053 132.681C113.3 135.479 103.927 136.406 94.9964 134.528C92.9887 134.105 90.9408 133.53 88.9911 132.83C81.8017 125.738 78.8366 116.418 78.6073 106.805C78.2176 106.94 77.9117 107.021 77.5219 107.156ZM135.585 137.122C135.099 140.136 132.634 141.211 130.488 140.76C128.48 140.338 126.693 138.513 127.22 135.652L134.772 90.5719C134.417 88.4682 135.617 86.1843 137.952 85.7334C138.036 85.6786 138.105 85.6931 138.174 85.7076C138.258 85.6527 138.258 85.6527 138.327 85.6674C139.161 85.4804 139.938 85.5712 140.809 85.8992C153.71 87.4531 166.59 89.7997 179.606 92.5368C182.513 93.1484 183.586 95.6206 183.151 97.7029C182.73 99.7159 180.924 101.438 178.14 100.925C174.292 99.9705 170.444 99.0164 166.567 98.2009C158.675 96.5412 150.834 95.327 142.626 94.8326L135.585 137.122ZM178.436 125.263C175.234 125.025 173.898 122.425 174.377 120.134C174.77 118.26 176.339 116.633 179.042 116.84C184.74 117.241 190.551 117.449 196.232 118.281C196.196 114.65 195.494 111.096 194.042 107.675C192.279 103.318 187.967 101.47 184.974 98.1588C183.417 96.962 183.03 95.3586 183.321 93.9704C183.771 91.8186 185.966 89.9614 188.32 90.4564C188.943 90.5874 189.592 90.9412 190.281 91.4486C191.218 92.1528 191.918 92.9523 192.618 93.7517C201.128 99.02 205.136 109.573 204.816 120.086C205.425 120.287 206.033 120.487 206.78 120.717C209.353 121.548 210.207 123.684 209.8 125.627C209.336 127.849 207.195 129.79 204.207 128.871C203.93 128.813 203.722 128.77 203.598 128.671C202.876 131.78 201.781 134.593 200.453 137.14C197.84 145.142 191.355 150.228 184.038 153.761C182.88 154.46 181.839 154.603 180.869 154.399C178.585 153.919 177.067 151.498 177.532 149.277C177.75 148.236 178.398 147.213 179.639 146.459C181.566 145.198 183.572 144.243 185.568 142.996C190.407 138.868 193.721 133.043 195.265 126.701C189.654 125.883 184.105 125.803 178.436 125.263Z" fill="#C3BBC6"/>
</g>
</svg>
